<svg width="14" height="16" viewBox="0 0 14 16" fill="none" xmlns="http://www.w3.org/2000/svg">
<path fill-rule="evenodd" clip-rule="evenodd" d="M7 3.5C5.4467 3.5 4.1875 4.7592 4.1875 6.3125C4.1875 7.8658 5.4467 9.125 7 9.125C8.5533 9.125 9.8125 7.8658 9.8125 6.3125C9.8125 4.7592 8.5533 3.5 7 3.5ZM7 8C6.06802 8 5.3125 7.24448 5.3125 6.3125C5.3125 5.38052 6.06802 4.625 7 4.625C7.93198 4.625 8.6875 5.38052 8.6875 6.3125C8.6875 7.24448 7.93198 8 7 8ZM7 0.125C3.58434 0.128875 0.816375 2.89684 0.8125 6.3125C0.8125 8.52031 1.83273 10.8603 3.76562 13.0801C4.63414 14.0831 5.61165 14.9864 6.68008 15.773C6.87383 15.9088 7.1318 15.9088 7.32555 15.773C8.39201 14.986 9.36762 14.0828 10.2344 13.0801C12.1645 10.8603 13.1875 8.52031 13.1875 6.3125C13.1836 2.89684 10.4157 0.128875 7 0.125ZM7 14.6094C5.83773 13.6953 1.9375 10.3379 1.9375 6.3125C1.9375 3.51656 4.20406 1.25 7 1.25C9.79594 1.25 12.0625 3.51656 12.0625 6.3125C12.0625 10.3365 8.16227 13.6953 7 14.6094Z" fill="#0D141C"/>
</svg>
