<svg width="18" height="14" viewBox="0 0 18 14" fill="none" xmlns="http://www.w3.org/2000/svg">
<path d="M13.9673 10.1893L15.9364 8.27496C16.4117 7.81285 16.216 7.02341 15.5754 6.82322L14.4 6.45591V2.625C14.4 2.14175 13.9971 1.75 13.5 1.75H11.7V0.65625C11.7 0.293809 11.3978 0 11.025 0H6.975C6.6022 0 6.3 0.293809 6.3 0.65625V1.75H4.5C4.00295 1.75 3.6 2.14175 3.6 2.625V6.45591L2.4246 6.82322C1.78467 7.02319 1.58777 7.81233 2.06359 8.27496L4.03267 10.1893C3.53891 11.3828 2.40713 12.25 0.675 12.25C0.302203 12.25 0 12.5438 0 12.9062V13.3438C0 13.7062 0.302203 14 0.675 14C2.39127 14 3.69841 13.4364 4.70413 12.3759C5.10967 13.3282 6.07559 14 7.2 14H10.8C11.9244 14 12.8903 13.3282 13.2959 12.3759C14.3014 13.4363 15.6085 14 17.325 14C17.6978 14 18 13.7062 18 13.3438V12.9062C18 12.5438 17.6978 12.25 17.325 12.25C15.6145 12.25 14.4691 11.4023 13.9673 10.1893ZM5.4 3.5H12.6V5.89343L9.2754 4.8545C9.09631 4.79853 8.90369 4.79853 8.7246 4.8545L5.4 5.89343V3.5Z" fill="#575A5D"/>
</svg>
