<svg width="18" height="13" viewBox="0 0 18 13" fill="none" xmlns="http://www.w3.org/2000/svg">
<path fill-rule="evenodd" clip-rule="evenodd" d="M17.3967 5.22656L16.4123 2.76562C16.2415 2.33958 15.8279 2.06092 15.3689 2.0625H12.9375V1.5C12.9375 1.18934 12.6857 0.9375 12.375 0.9375H1.6875C1.06618 0.9375 0.5625 1.44118 0.5625 2.0625V9.9375C0.5625 10.5588 1.06618 11.0625 1.6875 11.0625H2.88281C3.13772 12.0581 4.03481 12.7544 5.0625 12.7544C6.09019 12.7544 6.98728 12.0581 7.24219 11.0625H10.7578C11.0127 12.0581 11.9098 12.7544 12.9375 12.7544C13.9652 12.7544 14.8623 12.0581 15.1172 11.0625H16.3125C16.9338 11.0625 17.4375 10.5588 17.4375 9.9375V5.4375C17.4377 5.36521 17.4238 5.29357 17.3967 5.22656ZM12.9375 3.1875H15.3689L16.0439 4.875H12.9375V3.1875ZM1.6875 2.0625H11.8125V6.5625H1.6875V2.0625ZM5.0625 11.625C4.44118 11.625 3.9375 11.1213 3.9375 10.5C3.9375 9.87868 4.44118 9.375 5.0625 9.375C5.68382 9.375 6.1875 9.87868 6.1875 10.5C6.1875 11.1213 5.68382 11.625 5.0625 11.625ZM10.7578 9.9375H7.24219C6.98728 8.94192 6.09019 8.24559 5.0625 8.24559C4.03481 8.24559 3.13772 8.94192 2.88281 9.9375H1.6875V7.6875H11.8125V8.55305C11.29 8.85504 10.9102 9.35361 10.7578 9.9375ZM12.9375 11.625C12.3162 11.625 11.8125 11.1213 11.8125 10.5C11.8125 9.87868 12.3162 9.375 12.9375 9.375C13.5588 9.375 14.0625 9.87868 14.0625 10.5C14.0625 11.1213 13.5588 11.625 12.9375 11.625ZM16.3125 9.9375H15.1172C14.8593 8.94454 13.9634 8.25097 12.9375 8.25V6H16.3125V9.9375Z" fill="#575A5D"/>
</svg>
