<svg width="9" height="9" viewBox="0 0 9 9" fill="none" xmlns="http://www.w3.org/2000/svg">
<path d="M7.96537 0.170901C7.8837 -0.0487965 7.65034 -0.0575844 7.55263 0.14981C7.1005 1.09714 6.29105 1.68769 5.36638 1.68769H4.1996C2.65362 1.68769 1.39933 3.19921 1.39933 5.06224C1.39933 5.18527 1.411 5.30302 1.42121 5.42254C2.35172 4.61933 3.69497 3.93739 5.59973 3.93739C5.72808 3.93739 5.83309 4.06393 5.83309 4.2186C5.83309 4.37327 5.72808 4.49981 5.59973 4.49981C1.93314 4.49981 0.378405 7.20824 0.0342053 8.22587C-0.0620538 8.51236 0.051707 8.83927 0.289438 8.95703C0.528627 9.07654 0.799903 8.93769 0.899079 8.65297C0.920956 8.58969 1.2039 7.81109 1.94772 7.0606C2.42027 7.83218 3.31868 8.5686 4.49859 8.41745C6.78839 8.21709 8.4 5.74242 8.4 2.71236C8.4 1.83005 8.24248 0.916113 7.96537 0.170901Z" fill="#089218"/>
</svg>
